g Cube (1)
v -0.5 -0.578631 0.5
v 0.5 -0.3646339 0.5
v -0.5 0.421369 0.5
v 0.5 0.6353661 0.5
v -0.5000001 0.697864 -0.5
v 0.5 0.5546954 -0.5000001
v -0.5000001 -0.302136 -0.5
v 0.5 -0.4453046 -0.5000001
v -0.5 0.421369 0.5
v 0.5 0.6353661 0.5
v -0.5000001 0.697864 -0.5
v 0.5 0.5546954 -0.5000001
v -0.5000001 -0.302136 -0.5
v -0.5 -0.578631 0.5
v 0.5 -0.3646339 0.5
v 0.5 -0.4453046 -0.5000001
v 0.5 -0.3646339 0.5
v 0.5 0.6353661 0.5
v 0.5 0.5546954 -0.5000001
v 0.5 -0.4453046 -0.5000001
v -0.5000001 -0.302136 -0.5
v -0.5000001 0.697864 -0.5
v -0.5 0.421369 0.5
v -0.5 -0.578631 0.5

vn 0 0 1
vn 0 0 1
vn 0 0 1
vn 0 0 1
vn 0.1366958 0.9547887 0.2639943
vn -0.03522379 0.9946232 0.09738567
vn -4.470349E-08 0 -1
vn -5.215406E-08 0 -1
vn -0.03522379 0.9946232 0.09738567
vn -0.2086111 0.9748318 -0.07864038
vn -5.215406E-08 0 -1
vn -5.960464E-08 0 -1
vn 0.0352238 -0.9946232 -0.09738567
vn 0.2020059 -0.9439659 -0.2610018
vn 0.0352238 -0.9946232 -0.09738567
vn -0.1412738 -0.986765 0.07960305
vn 1 -1.490116E-08 -2.980232E-08
vn 1 -2.980232E-08 -2.980232E-08
vn 1 -1.490116E-08 -2.980232E-08
vn 1 0 -2.980232E-08
vn -1 0 7.450581E-08
vn -1 0 5.960464E-08
vn -1 0 7.450581E-08
vn -1 0 8.940697E-08

vt 0 0
vt 1 0
vt 0 1
vt 1 1
vt 0 1
vt 1 1
vt 0 1
vt 1 1
vt 0 0
vt 1 0
vt 0 0
vt 1 0
vt 0 0
vt 0 1
vt 1 1
vt 1 0
vt 0 0
vt 0 1
vt 1 1
vt 1 0
vt 0 0
vt 0 1
vt 1 1
vt 1 0

usemtl Default-Material
usemap Default-Material
f 4/4/4 3/3/3 1/1/1
f 2/2/2 4/4/4 1/1/1
f 6/6/6 5/5/5 9/9/9
f 10/10/10 6/6/6 9/9/9
f 8/8/8 7/7/7 11/11/11
f 12/12/12 8/8/8 11/11/11
f 15/15/15 14/14/14 13/13/13
f 16/16/16 15/15/15 13/13/13
f 19/19/19 18/18/18 17/17/17
f 20/20/20 19/19/19 17/17/17
f 23/23/23 22/22/22 21/21/21
f 24/24/24 23/23/23 21/21/21
